HIERARCHY
ROOT Hips
{
	OFFSET 0.000000 0.000000 0.000000
	CHANNELS 6 Xposition Yposition Zposition Zrotation Yrotation Xrotation 
	JOINT LeftUpLeg_virtual
	{
		OFFSET 0.000000 0.000000 0.000000
		CHANNELS 3 Zrotation Yrotation Xrotation
		JOINT LeftUpLeg
		{
			OFFSET 10.205400 -3.823500 0.155100
			CHANNELS 3 Zrotation Yrotation Xrotation
			JOINT LeftLeg
			{
				OFFSET 0.708757 -12.982077 0.567790
				CHANNELS 3 Zrotation Yrotation Xrotation
				JOINT LeftFoot
				{
					OFFSET -0.708756 -10.717838 -2.184338
					CHANNELS 3 Zrotation Yrotation Xrotation
					JOINT LeftToeBase
					{
						OFFSET 0.108149 -7.191104 7.560241
						CHANNELS 3 Zrotation Yrotation Xrotation
						End Site
						{
							OFFSET 0.000000 0.000000 0.000000
						}
					}
				}
			}
		}
	}
	JOINT RightUpLeg_virtual
	{
		OFFSET 0.000000 0.000000 0.000000
		CHANNELS 3 Zrotation Yrotation Xrotation
		JOINT RightUpLeg
		{
			OFFSET -10.205400 -3.823500 0.005500
			CHANNELS 3 Zrotation Yrotation Xrotation
			JOINT RightLeg
			{
				OFFSET -0.708756 -12.982134 0.610632
				CHANNELS 3 Zrotation Yrotation Xrotation
				JOINT RightFoot
				{
					OFFSET 0.708754 -10.717769 -1.945823
					CHANNELS 3 Zrotation Yrotation Xrotation
					JOINT RightToeBase
					{
						OFFSET -0.108140 -7.191069 7.372968
						CHANNELS 3 Zrotation Yrotation Xrotation
						End Site
						{
							OFFSET 0.000000 0.000000 0.000000
						}
					}
				}
			}
		}
	}
	JOINT Spine_virtual
	{
		OFFSET 0.000000 0.000000 0.000000
		CHANNELS 3 Zrotation Yrotation Xrotation
		JOINT Spine
		{
			OFFSET 0.000000 6.876099 0.125700
			CHANNELS 3 Zrotation Yrotation Xrotation
			JOINT Spine1
			{
				OFFSET 0.000000 8.022060 0.146608
				CHANNELS 3 Zrotation Yrotation Xrotation
				JOINT Spine2
				{
					OFFSET 0.000000 9.168068 0.167552
					CHANNELS 3 Zrotation Yrotation Xrotation
					JOINT Neck_virtual
					{
						OFFSET 0.000000 0.000000 0.000000
						CHANNELS 3 Zrotation Yrotation Xrotation
						JOINT Neck
						{
							OFFSET 0.000000 10.314075 0.188496
							CHANNELS 3 Zrotation Yrotation Xrotation
							JOINT Head
							{
								OFFSET 0.000000 7.643700 -2.377400
								CHANNELS 3 Zrotation Yrotation Xrotation
								End Site
								{
									OFFSET 0.000000 0.000000 0.000000
								}
							}
						}
					}
					JOINT LeftShoulder_virtual
					{
						OFFSET 0.000000 0.000000 0.000000
						CHANNELS 3 Zrotation Yrotation Xrotation
						JOINT LeftShoulder
						{
							OFFSET 4.392200 8.824978 0.174984
							CHANNELS 3 Zrotation Yrotation Xrotation
							JOINT LeftArm
							{
								OFFSET 8.771219 -2.981674 -0.026999
								CHANNELS 3 Zrotation Yrotation Xrotation
								JOINT LeftForeArm
								{
									OFFSET 8.512804 0.000000 -0.000000
									CHANNELS 3 Zrotation Yrotation Xrotation
									JOINT LeftHand
									{
										OFFSET 18.484802 0.000000 -0.000000
										CHANNELS 3 Zrotation Yrotation Xrotation
										End Site
										{
											OFFSET 0.000000 0.000000 0.000000
										}
									}
								}
							}
						}
					}
					JOINT RightShoulder_virtual
					{
						OFFSET 0.000000 0.000000 0.000000
						CHANNELS 3 Zrotation Yrotation Xrotation
						JOINT RightShoulder
						{
							OFFSET -4.392200 8.824993 0.141379
							CHANNELS 3 Zrotation Yrotation Xrotation
							JOINT RightArm
							{
								OFFSET -8.771282 -2.981682 -0.094208
								CHANNELS 3 Zrotation Yrotation Xrotation
								JOINT RightForeArm
								{
									OFFSET -8.494598 0.000000 0.000000
									CHANNELS 3 Zrotation Yrotation Xrotation
									JOINT RightHand
									{
										OFFSET -18.483803 0.000000 0.000001
										CHANNELS 3 Zrotation Yrotation Xrotation
										End Site
										{
											OFFSET 0.000000 0.000000 0.000000
										}
									}
								}
							}
						}
					}
				}
			}
		}
	}
}
MOTION
Frames: 5
Frame Time: 0.033333
-30.380686 36.403980 51.780640 179.940897 37.809414 179.849850 -1.824836 -3.704392 7.677058 -11.042868 0.499343 -22.420765 14.876883 3.208177 19.320517 -1.980855 -5.179134 11.888704 0.000000 0.000000 0.000000 3.051893 -1.480126 6.017788 2.643539 6.850875 -12.089153 -9.545955 -0.825678 18.308028 4.883809 6.674721 14.188110 0.000000 0.000000 0.000000 0.822493 0.503152 -3.650410 2.893888 -0.357247 -15.728828 -1.612638 -3.473631 9.098675 0.004575 -0.015275 -0.013844 -2.070666 -1.144891 11.810942 -7.983345 2.223014 15.689136 0.000000 0.000000 0.000000 0.037581 -0.593336 9.035780 -12.950909 -0.034471 1.772349 -55.237454 19.968500 21.478510 0.001261 -42.561422 10.562588 0.000000 0.000000 0.000000 -4.408763 0.680220 8.459636 26.316046 4.920548 2.773796 53.212559 -23.634977 8.624742 -6.221323 32.976833 -3.308124 0.000000 0.000000 0.000000 
-30.441473 36.396996 51.745686 179.873961 37.957110 179.720090 -1.995921 -3.716368 7.548061 -10.816648 0.087296 -22.530598 14.819342 2.843867 19.209991 -2.434527 -5.504793 11.619936 0.000000 0.000000 0.000000 3.020715 -1.671495 5.968531 2.798844 6.433120 -11.788098 -9.488267 -1.221077 18.444060 4.393991 6.091812 14.536272 0.000000 0.000000 0.000000 0.834942 0.510165 -3.647607 2.917880 -0.282590 -15.602551 -1.631963 -3.388363 9.171051 0.002144 0.004814 -0.004723 -2.031253 -1.255066 11.827762 -8.013239 2.215456 15.717850 0.000000 0.000000 0.000000 0.083571 -0.662872 9.124248 -12.865154 -0.153338 1.729535 -55.291396 20.139566 21.554653 -0.054057 -42.491280 10.652575 0.000000 0.000000 0.000000 -4.400724 0.569442 8.499778 26.267383 4.893977 2.775574 53.245535 -23.589747 8.807008 -6.239822 32.903931 -3.284430 0.000000 0.000000 0.000000 
-30.534632 36.385998 51.659973 -179.811560 38.395604 179.964625 -1.812216 -3.851471 7.547317 -11.173883 0.763947 -22.701771 14.928995 2.984007 19.711383 -2.442751 -5.343956 11.446996 0.000000 0.000000 0.000000 3.207097 -1.942143 5.730511 2.708193 6.782406 -11.605459 -9.733160 -0.646093 18.040599 4.908258 6.128799 14.650732 0.000000 0.000000 0.000000 1.049908 0.483850 -3.775346 3.071693 -0.219250 -15.480924 -1.628813 -3.536434 9.286750 0.014104 -0.067040 -0.031509 -2.130211 -1.098602 11.975439 -7.931698 2.231343 15.727726 0.000000 0.000000 0.000000 -0.052908 -0.657681 9.238995 -12.651989 -0.059551 1.713001 -55.450539 20.400131 21.494276 -0.211480 -42.281702 10.885955 0.000000 0.000000 0.000000 -4.526668 0.582774 8.541685 26.254177 4.960845 2.726212 53.293494 -23.476072 8.842771 -6.213415 32.829219 -3.308628 0.000000 0.000000 0.000000 
-30.650995 36.366352 51.488888 -179.845902 39.235127 179.997437 -1.803834 -3.914408 7.614120 -11.816165 2.003588 -22.971412 14.923026 3.008357 20.359488 -2.386775 -5.065492 11.125663 0.000000 0.000000 0.000000 3.225811 -2.001573 5.539646 2.276873 7.822751 -11.364256 -9.803219 0.287981 17.633619 5.302830 5.879337 14.758936 0.000000 0.000000 0.000000 1.136316 0.497815 -3.868091 3.181615 -0.157866 -15.390679 -1.733006 -3.592399 9.349638 0.024601 -0.091783 -0.054408 -2.213591 -1.287798 12.110329 -7.788841 2.329846 15.599577 0.000000 0.000000 0.000000 -0.079308 -0.639807 9.325800 -12.413548 0.123204 1.739905 -55.639428 20.689688 21.651814 -0.208966 -41.964993 10.971201 0.000000 0.000000 0.000000 -4.568888 0.573760 8.689759 26.287863 5.012835 2.625842 53.246157 -23.425046 8.953845 -6.177031 32.702427 -3.276132 0.000000 0.000000 0.000000 
-30.793968 36.341888 51.241409 -179.904259 40.317777 179.905680 -1.878680 -3.999648 7.779720 -12.622101 3.191473 -23.174962 15.083045 3.408159 21.051886 -2.396387 -4.721477 10.651776 0.000000 0.000000 0.000000 3.036861 -2.052537 5.444932 2.037971 8.874479 -11.186706 -10.391520 0.931005 17.372301 6.186962 5.861686 14.920473 0.000000 0.000000 0.000000 1.133919 0.362520 -3.876820 3.318391 -0.023707 -15.208550 -1.720582 -3.613423 9.315593 -0.027700 -0.027862 -0.006916 -2.209475 -1.253497 12.228628 -7.610403 2.304676 15.555305 0.000000 0.000000 0.000000 -0.116210 -0.725072 9.439767 -12.203669 0.381998 1.644765 -55.922662 20.883170 21.695787 -0.332810 -41.574197 11.239709 0.000000 0.000000 0.000000 -4.576376 0.521681 8.758066 26.344723 4.944075 2.656844 53.045496 -23.237207 8.950966 -6.232318 32.659250 -3.375732 0.000000 0.000000 0.000000 
